<svg version="1.1" xmlns="http://www.w3.org/2000/svg" xmlns:xlink="http://www.w3.org/1999/xlink" preserveAspectRatio="xMidYMid meet" viewBox="657 697 151 160" width="227"  height="240" ><g data-item-type="text" data-item="Business" id="logo__item--business" class="logo__item">
                <g class="logo__item__inner" transform="translate(660.15625 854.4162797007459) scale(1 1) rotate(0 0 0)">
                    <text data-part-id="logo__item--business" dy="0" dominant-baseline="auto" alignment-baseline="auto" font-family="Montserrat" font-size="32px" fill="#514E7F" letter-spacing="0" font-weight="bold" font-style="normal" data-font-family="Montserrat" data-font-weight="bold" data-font-style="normal" data-ttf-url="/builder_assets/fontsttf/font-montserrat-bold-normal.ttf" data-font-filename="montserrat-bold-normal">TechPals</text>
                </g>
            </g><g data-item-type="image" data-item="Image" data-logo-item="" id="logo__item--logo_0" class="logo__item">
    <g class="logo__item__inner" transform="translate(664.6519980795755 688) scale(0.9041446747367263 0.9041446747367263) rotate(0 0 0)">
        
<g>
	<path fill="#514E7F" d="M123.5,76c3.3-2.6,6.2-5.5,8.3-8.7c0.9-1.1,1.7-2.3,2.5-3.6c0-0.1,0.1-0.2,0.1-0.3   c-7.4-24.8-30.4-42.9-57.6-42.9c-4.5,0-8.8,0.5-13,1.4l55,47.6C121,71.3,122.5,73.6,123.5,76z M124.2,62.1c0,0-0.1,0.1-0.1,0.1   c-0.1-0.3-0.1-0.7-0.2-1C124,61.5,124.1,61.8,124.2,62.1z M136.4,72.9c-3.1,5.9-7.6,11.4-13.1,16.1c-0.7,1.6-1.6,3-2.8,4.4   l-27.8,32.1c-6.1,7.1-16.8,7.8-23.8,1.7L16.8,82c0,1.5,0.1,3,0.3,4.5c0.5,0.3,1.1,0.6,1.5,1.1l39.2,33.9c3.4,2.9,4.1,7.6,1.6,10.5   c-2.5,2.9-7.2,2.8-10.6-0.1l-23.3-20.2c10.5,17.4,29.6,29,51.4,29c33.2,0,60.1-26.9,60.1-60.1C136.9,78,136.7,75.4,136.4,72.9z" data-part-id="logo__item--logo_0__0"></path>
	<path fill="#E3F2FB" d="M113.1,69.5L60.6,24c-0.4-0.3-0.7-0.6-1.1-0.9c-6-4.8-12.3-6.6-14.5-4L34.5,31.3c-1.2,1.4-0.9,3.7,0.4,6.4   c1.3,2.6,3.6,5.6,6.7,8.3L70,70.5c17.2,6.6,34.2,7.5,46.9,2.7C115.8,72,114.5,70.7,113.1,69.5z" data-part-id="logo__item--logo_0__1"></path>
	<path fill="#1BB1DC" d="M103.6,14.2c-5.5-0.4-10.7,0.4-15.4,2.2c3.9,1.6,7.6,3.7,11,6.1c2.1-0.2,4.2-0.2,6.4-0.1   c12.7,1,23.1,8.5,27.4,18.4C132,27,119.6,15.5,103.6,14.2z M124.1,62.2c0,0,0.1-0.1,0.1-0.1c-0.1-0.3-0.2-0.6-0.3-0.9   C124,61.5,124,61.9,124.1,62.2z M55.4,66.6C44.8,60.2,35.9,52.4,29.3,44c-1.7-2.1-3.2-4.3-4.6-6.5l-12,14c-2.9,3.4-4.2,7.6-4,11.7   c2.8,2.2,5.9,4.3,9.2,6.3C29,76.1,42.9,81.2,58.3,83.6c21.4,3.3,41.5,0.9,56.6-5.6C98.6,82.7,76.2,79,55.4,66.6z" data-part-id="logo__item--logo_0__2"></path>
	<path fill="#FF6584" d="M131.9,25.7c7.2,13.3,8.5,27,2.5,37.7c0,0.1-0.1,0.2-0.1,0.3c-0.7,1.3-1.6,2.5-2.5,3.6   c-2.2,3.2-5,6.1-8.3,8.7c-15.1,11.8-41,17.3-69.1,13c-14-2.2-26.8-6.5-37.4-12.3c-0.9-0.5-1.7-0.9-2.5-1.4c0,0,0,0,0,0l2.4,2.1   L49.6,106c5.1,0.9,10.3,1.5,15.7,1.6c23.2,0.6,44-6.7,58-18.6c5.5-4.7,10-10.1,13.1-16.1c3.1-6,4.9-12.5,5-19.4   C141.5,43.5,138.1,34,131.9,25.7z" data-part-id="logo__item--logo_0__3"></path>
</g>

    </g>
</g></svg>