<?xml version="1.0" encoding="UTF-8"?>
<!DOCTYPE svg PUBLIC "-//W3C//DTD SVG 1.1//EN" "http://www.w3.org/Graphics/SVG/1.1/DTD/svg11.dtd">
<!-- Creator: CorelDRAW 2019 (64-Bit) -->
<svg xmlns="http://www.w3.org/2000/svg" xml:space="preserve" width="37.8165mm" height="9.7026mm" version="1.1" style="shape-rendering:geometricPrecision; text-rendering:geometricPrecision; image-rendering:optimizeQuality; fill-rule:evenodd; clip-rule:evenodd"
viewBox="0 0 463.4 118.89"
 xmlns:xlink="http://www.w3.org/1999/xlink">
 <defs>
  <style type="text/css">
   <![CDATA[
    .fil0 {fill:#0C8BCD}
    .fil3 {fill:#393185}
    .fil2 {fill:#0C8BCD;fill-rule:nonzero}
    .fil1 {fill:#393185;fill-rule:nonzero}
   ]]>
  </style>
 </defs>
 <g id="Layer_x0020_1">
  <metadata id="CorelCorpID_0Corel-Layer"/>
  <g id="_2204825840">
   <path class="fil0" d="M55.59 40.22l-45.13 0c-2.88,0 -5.5,1.18 -7.39,3.07 -1.9,1.9 -3.08,4.52 -3.08,7.4 0,2.88 1.18,5.5 3.07,7.39 1.9,1.9 4.52,3.08 7.4,3.08l34.66 0 0 45.27c0,2.88 1.18,5.5 3.07,7.39 1.9,1.9 4.51,3.08 7.39,3.08 2.88,0 5.5,-1.18 7.39,-3.07 1.9,-1.9 3.08,-4.52 3.08,-7.4l0 -55.73c0,-2.88 -1.18,-5.5 -3.07,-7.39 -1.9,-1.9 -4.52,-3.08 -7.4,-3.08z"/>
   <path class="fil1" d="M128.84 81.18c0,2.92 -0.56,5.68 -1.68,8.29 -1.11,2.61 -2.65,4.88 -4.61,6.83 -1.98,2 -4.27,3.55 -6.84,4.66 -2.59,1.13 -5.36,1.68 -8.32,1.68l-7.21 0c-2.96,0 -5.73,-0.56 -8.32,-1.68 -2.57,-1.11 -4.86,-2.66 -6.85,-4.66 -4.2,-4.25 -6.29,-9.3 -6.29,-15.11l0 -18.87c0,-2.96 0.56,-5.73 1.68,-8.34 1.11,-2.61 2.64,-4.88 4.61,-6.83 1.98,-1.96 4.27,-3.5 6.85,-4.61 2.59,-1.13 5.36,-1.68 8.32,-1.68l7.21 0c2.96,0 5.73,0.56 8.32,1.68 2.57,1.11 4.86,2.64 6.84,4.61 1.96,1.94 3.5,4.22 4.61,6.83 1.13,2.61 1.68,5.38 1.68,8.34l-2.33 3.53 -39.77 17.72c0.54,2.85 1.8,5.27 3.79,7.25 2.66,2.68 5.88,4.01 9.64,4.01l7.21 0c3.75,0 6.97,-1.33 9.64,-4.01 2.68,-2.66 4.01,-5.88 4.01,-9.64l7.81 0zm-42.32 -18.87l0 12.86 34.29 -15.3c-0.54,-2.81 -1.79,-5.22 -3.79,-7.2 -2.66,-2.68 -5.88,-4.01 -9.64,-4.01l-7.21 0c-3.76,0 -6.97,1.33 -9.64,4.01 -2.68,2.66 -4.01,5.88 -4.01,9.64z"/>
   <path id="1" class="fil1" d="M182 62.31c0,-3.76 -1.33,-6.97 -4.01,-9.64 -2.66,-2.68 -5.88,-4.01 -9.64,-4.01l-7.21 0c-3.76,0 -6.97,1.33 -9.64,4.01 -2.68,2.66 -4.01,5.88 -4.01,9.64l0 18.87c0,3.76 1.33,6.97 4.01,9.64 2.66,2.68 5.88,4.01 9.64,4.01l7.21 0c3.75,0 6.97,-1.33 9.64,-4.01 2.68,-2.66 4.01,-5.88 4.01,-9.64l7.81 0c0,3.94 -0.96,7.53 -2.9,10.78 -1.92,3.26 -4.51,5.85 -7.77,7.77 -3.26,1.94 -6.85,2.9 -10.78,2.9l-7.21 0c-3.94,0 -7.53,-0.96 -10.78,-2.9 -3.26,-1.92 -5.85,-4.51 -7.77,-7.77 -1.94,-3.26 -2.9,-6.84 -2.9,-10.78l0 -18.87c0,-3.94 0.96,-7.53 2.9,-10.78 1.92,-3.24 4.51,-5.85 7.77,-7.77 3.26,-1.94 6.84,-2.9 10.78,-2.9l7.21 0c3.94,0 7.53,0.96 10.78,2.9 3.25,1.92 5.85,4.53 7.77,7.77 1.94,3.26 2.9,6.84 2.9,10.78l-7.81 0z"/>
   <path id="2" class="fil1" d="M208.45 24.59l0 21.2c3.94,-3.29 8.49,-4.94 13.65,-4.94l7.21 0c3.94,0 7.53,0.96 10.78,2.9 3.25,1.92 5.85,4.53 7.77,7.77 1.94,3.26 2.9,6.84 2.9,10.78l0 40.33 -7.81 0 0 -40.33c0,-3.76 -1.33,-6.97 -4.01,-9.64 -2.66,-2.68 -5.88,-4.01 -9.64,-4.01l-7.21 0c-3.76,0 -6.97,1.33 -9.64,4.01 -2.68,2.66 -4.01,5.88 -4.01,9.64l0 40.33 -7.81 0 0 -78.04 7.81 0z"/>
   <g>
    <path class="fil2" d="M269.93 62.31l0 18.87c0,3.76 1.33,6.97 4.01,9.64 2.66,2.68 5.88,4.01 9.64,4.01l7.21 0c3.75,0 6.97,-1.33 9.64,-4.01 2.68,-2.66 4.01,-5.88 4.01,-9.64l0 -18.87c0,-3.76 -1.33,-6.97 -4.01,-9.64 -2.66,-2.68 -5.88,-4.01 -9.64,-4.01l-7.21 0c-3.76,0 -6.97,1.33 -9.64,4.01 -2.68,2.66 -4.01,5.88 -4.01,9.64zm-7.81 56.58l0 -56.58c0,-3.94 0.96,-7.53 2.9,-10.78 1.92,-3.24 4.51,-5.85 7.77,-7.77 3.26,-1.94 6.84,-2.9 10.78,-2.9l7.21 0c3.94,0 7.53,0.96 10.78,2.9 3.25,1.92 5.85,4.53 7.77,7.77 1.94,3.26 2.9,6.84 2.9,10.78l0 18.87c0,3.94 -0.96,7.53 -2.9,10.78 -1.92,3.26 -4.51,5.85 -7.77,7.77 -3.26,1.94 -6.85,2.9 -10.78,2.9l-7.21 0c-5.16,0 -9.71,-1.65 -13.65,-4.94l0 21.2 -7.81 0z"/>
    <path id="1" class="fil2" d="M323.09 62.31c0,-2.96 0.56,-5.73 1.68,-8.34 1.11,-2.61 2.64,-4.88 4.61,-6.83 1.98,-1.96 4.27,-3.5 6.85,-4.61 2.59,-1.13 5.36,-1.68 8.32,-1.68l7.21 0c2.96,0 5.73,0.56 8.32,1.68 2.57,1.11 4.86,2.64 6.84,4.61 4.2,4.25 6.29,9.32 6.29,15.17l0 18.87c0,2.92 -0.56,5.68 -1.68,8.29 -1.11,2.61 -2.65,4.88 -4.61,6.83 -1.98,2 -4.27,3.55 -6.84,4.66 -2.59,1.13 -5.36,1.68 -8.32,1.68l-7.21 0c-2.96,0 -5.73,-0.56 -8.32,-1.68 -2.57,-1.11 -4.86,-2.66 -6.85,-4.66 -1.96,-1.94 -3.5,-4.22 -4.61,-6.83 -1.13,-2.61 -1.68,-5.36 -1.68,-8.29l2.33 -3.59 39.77 -17.72c-0.54,-2.81 -1.79,-5.22 -3.79,-7.2 -2.66,-2.68 -5.88,-4.01 -9.64,-4.01l-7.21 0c-3.76,0 -6.97,1.33 -9.64,4.01 -2.68,2.66 -4.01,5.88 -4.01,9.64l-7.81 0zm42.32 18.87l0 -12.89 -34.29 15.28c0.54,2.85 1.8,5.27 3.79,7.25 2.66,2.68 5.88,4.01 9.64,4.01l7.21 0c3.75,0 6.97,-1.33 9.64,-4.01 2.68,-2.66 4.01,-5.88 4.01,-9.64z"/>
    <path id="2" class="fil2" d="M391.87 24.59l0 56.58c0,3.76 1.33,6.97 4.01,9.64 2.66,2.68 5.88,4.01 9.64,4.01l3.9 0 0 7.81 -3.9 0c-3.94,0 -7.53,-0.96 -10.78,-2.9 -3.26,-1.92 -5.85,-4.51 -7.77,-7.77 -1.94,-3.26 -2.9,-6.84 -2.9,-10.78l0 -56.58 7.81 0z"/>
    <path id="3" class="fil2" d="M455.59 62.31c0,-3.76 -1.33,-6.97 -4.01,-9.64 -2.66,-2.68 -5.88,-4.01 -9.64,-4.01l-7.21 0c-3.33,0 -6.23,1.06 -8.73,3.16 -2.48,2.13 -4.05,4.81 -4.7,8.05l39.77 17.72 2.33 3.59c0,2.96 -0.56,5.73 -1.68,8.32 -1.11,2.57 -2.65,4.86 -4.61,6.85 -1.98,1.96 -4.27,3.5 -6.84,4.61 -2.59,1.13 -5.36,1.68 -8.32,1.68l-7.21 0c-3.94,0 -7.53,-0.96 -10.78,-2.9 -3.26,-1.92 -5.85,-4.51 -7.77,-7.77 -1.94,-3.26 -2.9,-6.84 -2.9,-10.78l7.81 0c0,3.76 1.33,6.97 4.01,9.64 2.66,2.68 5.88,4.01 9.64,4.01l7.21 0c3.31,0 6.23,-1.06 8.71,-3.16 2.5,-2.13 4.07,-4.81 4.72,-8.05l-39.77 -17.78 -2.33 -3.53c0,-2.96 0.56,-5.73 1.68,-8.31 1.11,-2.59 2.64,-4.88 4.61,-6.86 1.98,-1.96 4.27,-3.5 6.85,-4.61 2.59,-1.13 5.36,-1.68 8.32,-1.68l7.21 0c3.94,0 7.53,0.96 10.78,2.9 3.25,1.92 5.85,4.53 7.77,7.77 1.94,3.26 2.9,6.84 2.9,10.78l-7.81 0z"/>
    <circle class="fil3" cx="73.68" cy="15.44" r="15.44"/>
   </g>
  </g>
 </g>
</svg>
